# This file uses centimeters as units for non-parametric coordinates.

mtllib pistil.mtl
g default
v 0.007539 0.017891 -0.013058
v -0.007539 0.017891 -0.013058
v -0.015078 0.017891 0.000000
v -0.007539 0.017891 0.013058
v 0.007539 0.017891 0.013058
v 0.015078 0.017891 0.000000
v 0.007539 0.793835 -0.013058
v -0.007539 0.793835 -0.013058
v -0.015078 0.793835 0.000000
v -0.007539 0.793835 0.013058
v 0.007539 0.793835 0.013058
v 0.015078 0.793835 0.000000
v 0.000000 0.017891 0.000000
v 0.008431 0.839489 -0.014603
v -0.008431 0.839489 -0.014603
v 0.000000 0.839489 0.000000
v -0.016862 0.839489 0.000000
v -0.008431 0.839489 0.014603
v 0.008431 0.839489 0.014603
v 0.016862 0.839489 0.000000
v 0.013082 0.801675 -0.022659
v -0.013082 0.801675 -0.022659
v -0.013002 0.829712 -0.022521
v 0.013002 0.829712 -0.022521
v -0.026164 0.801675 0.000000
v -0.026005 0.829712 0.000000
v -0.013082 0.801675 0.022659
v -0.013002 0.829712 0.022521
v 0.013082 0.801675 0.022659
v 0.013002 0.829712 0.022521
v 0.026164 0.801675 0.000000
v 0.026005 0.829712 0.000000
v -0.015519 0.696842 0.000000
v -0.007760 0.696842 -0.013440
v 0.007760 0.696842 -0.013440
v 0.015519 0.696842 0.000000
v 0.007760 0.696842 0.013440
v -0.007760 0.696842 0.013440
v -0.016008 0.599849 0.000000
v -0.008004 0.599849 -0.013863
v 0.008004 0.599849 -0.013863
v 0.016008 0.599849 0.000000
v 0.008004 0.599849 0.013863
v -0.008004 0.599849 0.013863
v -0.016384 0.502856 0.000000
v -0.008192 0.502856 -0.014189
v 0.008192 0.502856 -0.014189
v 0.016384 0.502856 0.000000
v 0.008192 0.502856 0.014189
v -0.008192 0.502856 0.014189
v -0.016524 0.405863 0.000000
v -0.008262 0.405863 -0.014311
v 0.008262 0.405863 -0.014311
v 0.016524 0.405863 0.000000
v 0.008262 0.405863 0.014311
v -0.008262 0.405863 0.014311
v -0.016384 0.308870 0.000000
v -0.008192 0.308870 -0.014189
v 0.008192 0.308870 -0.014189
v 0.016384 0.308870 0.000000
v 0.008192 0.308870 0.014189
v -0.008192 0.308870 0.014189
v -0.016008 0.211877 0.000000
v -0.008004 0.211877 -0.013863
v 0.008004 0.211877 -0.013863
v 0.016008 0.211877 0.000000
v 0.008004 0.211877 0.013863
v -0.008004 0.211877 0.013863
v -0.015519 0.114884 0.000000
v -0.007760 0.114884 -0.013440
v 0.007760 0.114884 -0.013440
v 0.015519 0.114884 0.000000
v 0.007760 0.114884 0.013440
v -0.007760 0.114884 0.013440
vt 0.892066 0.525715
vt 0.885937 0.523203
vt 0.889069 0.468197
vt 0.898675 0.468655
vt 0.879979 0.522300
vt 0.879427 0.468166
vt 0.873929 0.522860
vt 0.869819 0.468594
vt 0.867520 0.525224
vt 0.860334 0.469377
vt 0.860981 0.530511
vt 0.851113 0.470190
vt 0.879758 0.531071
vt 0.892072 0.029733
vt 0.880543 0.030647
vt 0.870754 0.024541
vt 0.870775 0.032990
vt 0.861461 0.031096
vt 0.850357 0.030425
vt 0.840819 0.027514
vt 0.893725 0.053621
vt 0.882075 0.054257
vt 0.881390 0.038164
vt 0.893643 0.037211
vt 0.871056 0.055035
vt 0.870612 0.039609
vt 0.859844 0.054665
vt 0.859692 0.038531
vt 0.847995 0.053927
vt 0.847861 0.037466
vt 0.906725 0.054772
vt 0.908183 0.035031
vt 0.890933 0.060934
vt 0.880771 0.061254
vt 0.870337 0.061625
vt 0.859862 0.061649
vt 0.849627 0.061673
vt 0.840092 0.062513
vt 0.880911 0.119482
vt 0.871574 0.119691
vt 0.890224 0.119274
vt 0.843623 0.120327
vt 0.852907 0.120105
vt 0.862228 0.119895
vt 0.882603 0.177690
vt 0.873006 0.177936
vt 0.892202 0.177404
vt 0.844211 0.178443
vt 0.853811 0.178314
vt 0.863409 0.178144
vt 0.884204 0.235857
vt 0.874375 0.236099
vt 0.894032 0.235590
vt 0.844889 0.236683
vt 0.854718 0.236514
vt 0.864547 0.236319
vt 0.885654 0.294012
vt 0.875739 0.294243
vt 0.895569 0.293785
vt 0.845996 0.294956
vt 0.855910 0.294715
vt 0.865824 0.294477
vt 0.886940 0.352171
vt 0.877099 0.352382
vt 0.896778 0.351994
vt 0.847596 0.353218
vt 0.857425 0.352905
vt 0.867260 0.352626
vt 0.888102 0.410328
vt 0.878422 0.410493
vt 0.897768 0.410243
vt 0.849494 0.411462
vt 0.859103 0.411079
vt 0.868749 0.410747
vt 0.908183 0.469385
vt 0.907405 0.410217
vt 0.906613 0.351849
vt 0.905483 0.293562
vt 0.903860 0.235298
vt 0.901803 0.177079
vt 0.899558 0.119057
vt 0.900301 0.061742
vt 0.833415 0.054040
vt 0.835103 0.034141
vt 0.870419 0.014648
vt 0.902750 0.027410
vt 0.879827 0.019836
vt 0.861397 0.020417
vt 0.898274 0.530491
vn 0.499230 -0.055460 -0.864693
vn -0.499230 -0.055460 -0.864693
vn -0.499994 -0.004795 -0.866016
vn 0.499994 -0.004795 -0.866016
vn -0.998461 -0.055460 -0.000001
vn -0.999989 -0.004795 -0.000001
vn -0.499230 -0.055460 0.864693
vn -0.499994 -0.004795 0.866016
vn 0.499230 -0.055460 0.864693
vn 0.499994 -0.004795 0.866016
vn 0.998461 -0.055460 0.000000
vn 0.999989 -0.004795 0.000000
vn 0.000000 -1.000000 0.000000
vn 0.304076 0.793820 -0.526677
vn -0.304076 0.793820 -0.526676
vn 0.000000 1.000000 0.000000
vn -0.608153 0.793820 0.000000
vn -0.304076 0.793819 0.526677
vn 0.304076 0.793819 0.526677
vn 0.608153 0.793820 0.000000
vn 0.490992 -0.188957 -0.850424
vn -0.490992 -0.188957 -0.850425
vn -0.492523 0.172278 -0.853077
vn 0.492524 0.172278 -0.853077
vn -0.981985 -0.188958 -0.000001
vn -0.985048 0.172278 -0.000001
vn -0.490992 -0.188957 0.850424
vn -0.492524 0.172278 0.853077
vn 0.490992 -0.188957 0.850425
vn 0.492524 0.172278 0.853077
vn 0.981985 -0.188957 0.000001
vn 0.985048 0.172278 0.000001
vn 0.493139 -0.165088 -0.854143
vn -0.493139 -0.165088 -0.854143
vn -0.986279 -0.165088 -0.000001
vn -0.493139 -0.165088 0.854143
vn 0.493139 -0.165088 0.854143
vn 0.986279 -0.165088 0.000000
vn -0.499994 0.004795 -0.866016
vn -0.999988 0.004795 -0.000001
vn 0.499994 0.004795 -0.866016
vn 0.999988 0.004795 0.000000
vn 0.499994 0.004795 0.866016
vn -0.499994 0.004795 0.866016
vn -0.499995 0.004447 -0.866017
vn -0.999990 0.004447 -0.000001
vn 0.499995 0.004447 -0.866017
vn 0.999990 0.004447 0.000001
vn 0.499995 0.004447 0.866017
vn -0.499995 0.004447 0.866017
vn -0.499998 0.002653 -0.866023
vn -0.999997 0.002653 -0.000001
vn 0.499998 0.002653 -0.866022
vn 0.999997 0.002653 0.000000
vn 0.499998 0.002653 0.866023
vn -0.499998 0.002653 0.866022
vn -0.500000 -0.000000 -0.866026
vn -1.000000 0.000000 -0.000001
vn 0.500000 -0.000000 -0.866025
vn 1.000000 0.000000 0.000000
vn 0.500000 0.000000 0.866026
vn -0.500000 -0.000000 0.866026
vn -0.499998 -0.002653 -0.866023
vn -0.999997 -0.002653 -0.000001
vn 0.499998 -0.002653 -0.866022
vn 0.999997 -0.002653 0.000001
vn 0.499998 -0.002653 0.866023
vn -0.499998 -0.002653 0.866022
vn -0.499995 -0.004447 -0.866017
vn -0.999990 -0.004447 -0.000001
vn 0.499995 -0.004447 -0.866017
vn 0.999990 -0.004447 0.000000
vn 0.499995 -0.004447 0.866017
vn -0.499995 -0.004447 0.866017
s 1
g pistil
usemtl blinn1SG
f 1/1/1 2/2/2 70/3/3 71/4/4
f 2/2/2 3/5/5 69/6/6 70/3/3
f 3/5/5 4/7/7 74/8/8 69/6/6
f 4/7/7 5/9/9 73/10/10 74/8/8
f 5/9/9 6/11/11 72/12/12 73/10/10
f 6/89/11 1/1/1 71/4/4 72/75/12
f 2/2/2 1/1/1 13/13/13
f 3/5/5 2/2/2 13/13/13
f 4/7/7 3/5/5 13/13/13
f 5/9/9 4/7/7 13/13/13
f 6/11/11 5/9/9 13/13/13
f 1/1/1 6/89/11 13/13/13
f 14/87/14 15/15/15 16/16/16
f 15/15/15 17/17/17 16/16/16
f 17/17/17 18/18/18 16/16/16
f 18/18/18 19/88/19 16/16/16
f 19/88/19 20/85/20 16/16/16
f 20/85/20 14/87/14 16/16/16
f 21/21/21 22/22/22 23/23/23 24/24/24
f 22/22/22 25/25/25 26/26/26 23/23/23
f 25/25/25 27/27/27 28/28/28 26/26/26
f 27/27/27 29/29/29 30/30/30 28/28/28
f 29/29/29 31/83/31 32/84/32 30/30/30
f 31/31/31 21/21/21 24/24/24 32/32/32
f 7/33/33 8/34/34 22/22/22 21/21/21
f 15/15/15 14/14/14 24/24/24 23/23/23
f 8/34/34 9/35/35 25/25/25 22/22/22
f 17/17/17 15/15/15 23/23/23 26/26/26
f 9/35/35 10/36/36 27/27/27 25/25/25
f 18/18/18 17/17/17 26/26/26 28/28/28
f 10/36/36 11/37/37 29/29/29 27/27/27
f 19/19/19 18/18/18 28/28/28 30/30/30
f 11/37/37 12/38/38 31/83/31 29/29/29
f 20/20/20 19/19/19 30/30/30 32/84/32
f 12/82/38 7/33/33 21/21/21 31/31/31
f 14/14/14 20/86/20 32/32/32 24/24/24
f 34/39/39 33/40/40 9/35/35 8/34/34
f 35/41/41 34/39/39 8/34/34 7/33/33
f 36/81/42 35/41/41 7/33/33 12/82/38
f 37/43/43 36/42/42 12/38/38 11/37/37
f 38/44/44 37/43/43 11/37/37 10/36/36
f 33/40/40 38/44/44 10/36/36 9/35/35
f 40/45/45 39/46/46 33/40/40 34/39/39
f 41/47/47 40/45/45 34/39/39 35/41/41
f 42/80/48 41/47/47 35/41/41 36/81/42
f 43/49/49 42/48/48 36/42/42 37/43/43
f 44/50/50 43/49/49 37/43/43 38/44/44
f 39/46/46 44/50/50 38/44/44 33/40/40
f 46/51/51 45/52/52 39/46/46 40/45/45
f 47/53/53 46/51/51 40/45/45 41/47/47
f 48/79/54 47/53/53 41/47/47 42/80/48
f 49/55/55 48/54/54 42/48/48 43/49/49
f 50/56/56 49/55/55 43/49/49 44/50/50
f 45/52/52 50/56/56 44/50/50 39/46/46
f 52/57/57 51/58/58 45/52/52 46/51/51
f 53/59/59 52/57/57 46/51/51 47/53/53
f 54/78/60 53/59/59 47/53/53 48/79/54
f 55/61/61 54/60/60 48/54/54 49/55/55
f 56/62/62 55/61/61 49/55/55 50/56/56
f 51/58/58 56/62/62 50/56/56 45/52/52
f 58/63/63 57/64/64 51/58/58 52/57/57
f 59/65/65 58/63/63 52/57/57 53/59/59
f 60/77/66 59/65/65 53/59/59 54/78/60
f 61/67/67 60/66/66 54/60/60 55/61/61
f 62/68/68 61/67/67 55/61/61 56/62/62
f 57/64/64 62/68/68 56/62/62 51/58/58
f 64/69/69 63/70/70 57/64/64 58/63/63
f 65/71/71 64/69/69 58/63/63 59/65/65
f 66/76/72 65/71/71 59/65/65 60/77/66
f 67/73/73 66/72/72 60/66/66 61/67/67
f 68/74/74 67/73/73 61/67/67 62/68/68
f 63/70/70 68/74/74 62/68/68 57/64/64
f 70/3/3 69/6/6 63/70/70 64/69/69
f 71/4/4 70/3/3 64/69/69 65/71/71
f 72/75/12 71/4/4 65/71/71 66/76/72
f 73/10/10 72/12/12 66/72/72 67/73/73
f 74/8/8 73/10/10 67/73/73 68/74/74
f 69/6/6 74/8/8 68/74/74 63/70/70
